<?xml version="1.0" encoding="utf-8" ?>
<!DOCTYPE svg PUBLIC "-//W3C//DTD SVG 1.1//EN" "http://www.w3.org/Graphics/SVG/1.1/DTD/svg11.dtd">
<svg height="908" version="1.1" width="1252" xmlns="http://www.w3.org/2000/svg">
<ellipse cx="118" cy="22" fill="#000000" rx="8.0" ry="8.0" stroke="#000000" stroke-width="1"/>
<rect fill="#00ff" height="59" rx="16" ry="16" stroke="#00ff" stroke-width="1" width="126" x="14" y="142"/>
<rect fill="#ffffff" height="59" rx="16" ry="16" stroke="#000000" stroke-width="1" width="126" x="14" y="142"/>
<rect fill="#ffffff" height="57" rx="16" ry="16" stroke="#ffffff" stroke-width="1" width="124" x="15" y="143"/>
<text font-family="Dialog" font-size="12" x="67" y="155">
init</text>
<line fill="#000000" stroke="#000000" stroke-width="1" x1="14" x2="139" y1="165" y2="165"/>
<text font-family="Dialog" font-size="12" x="16" y="177">
entry /it_bebin</text>
<polyline fill="none" points="117,29 117,142" stroke="#000000" stroke-width="1"/>
<line fill="#000000" stroke="#000000" stroke-width="1" x1="110" x2="117" y1="130" y2="142"/>
<line fill="#000000" stroke="#000000" stroke-width="1" x1="124" x2="117" y1="130" y2="142"/>
<polyline fill="none" points="139,198 238,198" stroke="#000000" stroke-width="1"/>
<line fill="#000000" stroke="#000000" stroke-width="1" x1="226" x2="238" y1="205" y2="198"/>
<line fill="#000000" stroke="#000000" stroke-width="1" x1="226" x2="238" y1="191" y2="198"/>
<text font-family="Dialog" font-size="12" x="156" y="193">
start_me()</text>
<rect fill="#00ff" height="64" rx="16" ry="16" stroke="#00ff" stroke-width="1" width="113" x="622" y="166"/>
<rect fill="#ffffff" height="64" rx="16" ry="16" stroke="#000000" stroke-width="1" width="113" x="622" y="166"/>
<rect fill="#ffffff" height="62" rx="16" ry="16" stroke="#ffffff" stroke-width="1" width="111" x="623" y="167"/>
<text font-family="Dialog" font-size="12" x="656" y="179">
key-init</text>
<line fill="#000000" stroke="#000000" stroke-width="1" x1="622" x2="734" y1="189" y2="189"/>
<text font-family="Dialog" font-size="12" x="624" y="201">
entry /++it</text>
<polyline fill="none" points="445,182 622,182" stroke="#000000" stroke-width="1"/>
<line fill="#000000" stroke="#000000" stroke-width="1" x1="610" x2="622" y1="189" y2="182"/>
<line fill="#000000" stroke="#000000" stroke-width="1" x1="610" x2="622" y1="175" y2="182"/>
<text font-family="Dialog" font-size="12" x="504" y="177">
 [*it == /]</text>
<rect fill="#00ff" height="44" rx="16" ry="16" stroke="#00ff" stroke-width="1" width="152" x="934" y="302"/>
<rect fill="#ffffff" height="44" rx="16" ry="16" stroke="#000000" stroke-width="1" width="152" x="934" y="302"/>
<rect fill="#ffffff" height="42" rx="16" ry="16" stroke="#ffffff" stroke-width="1" width="150" x="935" y="303"/>
<text font-family="Dialog" font-size="12" x="948" y="315">
integer_key_pre_init</text>
<line fill="#000000" stroke="#000000" stroke-width="1" x1="934" x2="1085" y1="325" y2="325"/>
<text font-family="Dialog" font-size="12" x="936" y="337">
entry /++it</text>
<polyline fill="none" points="734,222 1006,222 1006,302" stroke="#000000" stroke-width="1"/>
<line fill="#000000" stroke="#000000" stroke-width="1" x1="999" x2="1006" y1="290" y2="302"/>
<line fill="#000000" stroke="#000000" stroke-width="1" x1="1013" x2="1006" y1="290" y2="302"/>
<text font-family="Dialog" font-size="12" x="881" y="217">
 [*it == \]</text>
<ellipse cx="1226" cy="882" fill="#000000" rx="12.0" ry="12.0" stroke="#000000" stroke-width="1"/>
<ellipse cx="1226" cy="882" fill="#ffffff" rx="11.0" ry="11.0" stroke="#ffffff" stroke-width="1"/>
<ellipse cx="1225" cy="881" fill="#000000" rx="7.5" ry="7.5" stroke="#000000" stroke-width="1"/>
<polyline fill="none" points="734,198 1222,198 1225,870" stroke="#000000" stroke-width="1"/>
<line fill="#000000" stroke="#000000" stroke-width="1" x1="1217" x2="1225" y1="858" y2="870"/>
<line fill="#000000" stroke="#000000" stroke-width="1" x1="1231" x2="1225" y1="857" y2="870"/>
<text font-family="Dialog" font-size="12" x="796" y="183">
 [*it==eos]</text>
<rect fill="#00ff" height="59" rx="16" ry="16" stroke="#00ff" stroke-width="1" width="152" x="942" y="454"/>
<rect fill="#ffffff" height="59" rx="16" ry="16" stroke="#000000" stroke-width="1" width="152" x="942" y="454"/>
<rect fill="#ffffff" height="57" rx="16" ry="16" stroke="#ffffff" stroke-width="1" width="150" x="943" y="455"/>
<text font-family="Dialog" font-size="12" x="949" y="467">
integer-key-candidate</text>
<line fill="#000000" stroke="#000000" stroke-width="1" x1="942" x2="1093" y1="477" y2="477"/>
<text font-family="Dialog" font-size="12" x="944" y="489">
entry /++it</text>
<polyline fill="none" points="1006,345 1006,454" stroke="#000000" stroke-width="1"/>
<line fill="#000000" stroke="#000000" stroke-width="1" x1="999" x2="1006" y1="442" y2="454"/>
<line fill="#000000" stroke="#000000" stroke-width="1" x1="1013" x2="1006" y1="442" y2="454"/>
<text font-family="Dialog" font-size="12" x="1008" y="404">
 [*it == "]</text>
<rect fill="#00ff" height="59" rx="16" ry="16" stroke="#00ff" stroke-width="1" width="126" x="606" y="766"/>
<rect fill="#ffffff" height="59" rx="16" ry="16" stroke="#000000" stroke-width="1" width="126" x="606" y="766"/>
<rect fill="#ffffff" height="57" rx="16" ry="16" stroke="#ffffff" stroke-width="1" width="124" x="607" y="767"/>
<text font-family="Dialog" font-size="12" x="612" y="779">
integer_key_found</text>
<line fill="#000000" stroke="#000000" stroke-width="1" x1="606" x2="731" y1="789" y2="789"/>
<text font-family="Dialog" font-size="12" x="608" y="801">
entry /++it</text>
<polyline fill="none" points="1014,641 1014,758" stroke="#000000" stroke-width="1"/>
<line fill="#000000" stroke="#000000" stroke-width="1" x1="1007" x2="1014" y1="746" y2="758"/>
<line fill="#000000" stroke="#000000" stroke-width="1" x1="1021" x2="1014" y1="746" y2="758"/>
<text font-family="Dialog" font-size="12" x="1017" y="704">
 [*it == "]</text>
<polyline fill="none" points="950,801 731,801" stroke="#000000" stroke-width="1"/>
<line fill="#000000" stroke="#000000" stroke-width="1" x1="743" x2="731" y1="794" y2="801"/>
<line fill="#000000" stroke="#000000" stroke-width="1" x1="743" x2="731" y1="808" y2="801"/>
<text font-family="Dialog" font-size="12" x="781" y="765">
 [* (it+1) == / </text>
<text font-family="Dialog" font-size="12" x="822" y="780">
||</text>
<text font-family="Dialog" font-size="12" x="795" y="795">
*it==eos]</text>
<rect fill="#00ff" height="44" rx="16" ry="16" stroke="#00ff" stroke-width="1" width="139" x="294" y="782"/>
<rect fill="#ffffff" height="44" rx="16" ry="16" stroke="#000000" stroke-width="1" width="139" x="294" y="782"/>
<rect fill="#ffffff" height="42" rx="16" ry="16" stroke="#ffffff" stroke-width="1" width="137" x="295" y="783"/>
<text font-family="Dialog" font-size="12" x="300" y="795">
integer-key-updated</text>
<line fill="#000000" stroke="#000000" stroke-width="1" x1="294" x2="432" y1="805" y2="805"/>
<polyline fill="none" points="606,798 432,798" stroke="#000000" stroke-width="1"/>
<line fill="#000000" stroke="#000000" stroke-width="1" x1="444" x2="432" y1="791" y2="798"/>
<line fill="#000000" stroke="#000000" stroke-width="1" x1="444" x2="432" y1="805" y2="798"/>
<text font-family="Dialog" font-size="12" x="452" y="793">
 / udpate_integer_key</text>
<polyline fill="none" points="318,782 318,221" stroke="#000000" stroke-width="1"/>
<line fill="#000000" stroke="#000000" stroke-width="1" x1="325" x2="318" y1="233" y2="221"/>
<line fill="#000000" stroke="#000000" stroke-width="1" x1="311" x2="318" y1="233" y2="221"/>
<text font-family="Dialog" font-size="12" x="331" y="514">
 / ++it</text>
<polyline fill="none" points="270,221 270,886 1214,882" stroke="#000000" stroke-width="1"/>
<line fill="#000000" stroke="#000000" stroke-width="1" x1="1202" x2="1214" y1="889" y2="882"/>
<line fill="#000000" stroke="#000000" stroke-width="1" x1="1201" x2="1214" y1="875" y2="882"/>
<text font-family="Dialog" font-size="12" x="170" y="288">
 [it==eos]</text>
<rect fill="#00ff" height="52" rx="16" ry="16" stroke="#00ff" stroke-width="1" width="102" x="478" y="366"/>
<rect fill="#ffffff" height="52" rx="16" ry="16" stroke="#000000" stroke-width="1" width="102" x="478" y="366"/>
<rect fill="#ffffff" height="50" rx="16" ry="16" stroke="#ffffff" stroke-width="1" width="100" x="479" y="367"/>
<text font-family="Dialog" font-size="12" x="484" y="379">
no-integer-key</text>
<line fill="#000000" stroke="#000000" stroke-width="1" x1="478" x2="579" y1="389" y2="389"/>
<polyline fill="none" points="622,229 579,366" stroke="#000000" stroke-width="1"/>
<line fill="#000000" stroke="#000000" stroke-width="1" x1="575" x2="579" y1="352" y2="366"/>
<line fill="#000000" stroke="#000000" stroke-width="1" x1="589" x2="579" y1="356" y2="366"/>
<text font-family="Dialog" font-size="12" x="552" y="294">
 [other]</text>
<polyline fill="none" points="414,221 414,318 350,318 350,221" stroke="#000000" stroke-width="1"/>
<line fill="#000000" stroke="#000000" stroke-width="1" x1="357" x2="350" y1="233" y2="221"/>
<line fill="#000000" stroke="#000000" stroke-width="1" x1="343" x2="350" y1="233" y2="221"/>
<text font-family="Dialog" font-size="12" x="336" y="341">
 [it_other] / ++it</text>
<polyline fill="none" points="1085,326 1222,326 1225,870" stroke="#000000" stroke-width="1"/>
<line fill="#000000" stroke="#000000" stroke-width="1" x1="1217" x2="1225" y1="858" y2="870"/>
<line fill="#000000" stroke="#000000" stroke-width="1" x1="1231" x2="1225" y1="857" y2="870"/>
<text font-family="Dialog" font-size="12" x="1116" y="310">
 [*it==eos]</text>
<polyline fill="none" points="1093,478 1222,478 1225,870" stroke="#000000" stroke-width="1"/>
<line fill="#000000" stroke="#000000" stroke-width="1" x1="1217" x2="1225" y1="858" y2="870"/>
<line fill="#000000" stroke="#000000" stroke-width="1" x1="1231" x2="1225" y1="857" y2="870"/>
<text font-family="Dialog" font-size="12" x="1124" y="472">
 [*it==eos]</text>
<polyline fill="none" points="982,598 982,512" stroke="#000000" stroke-width="1"/>
<line fill="#000000" stroke="#000000" stroke-width="1" x1="989" x2="982" y1="524" y2="512"/>
<line fill="#000000" stroke="#000000" stroke-width="1" x1="975" x2="982" y1="524" y2="512"/>
<text font-family="Dialog" font-size="12" x="917" y="560">
 [it_other]</text>
<polyline fill="none" points="950,622 678,622 678,229" stroke="#000000" stroke-width="1"/>
<line fill="#000000" stroke="#000000" stroke-width="1" x1="685" x2="678" y1="241" y2="229"/>
<line fill="#000000" stroke="#000000" stroke-width="1" x1="671" x2="678" y1="241" y2="229"/>
<text font-family="Dialog" font-size="12" x="770" y="611">
 [*it == /]</text>
<rect fill="#00ff" height="44" rx="16" ry="16" stroke="#00ff" stroke-width="1" width="141" x="950" y="758"/>
<rect fill="#ffffff" height="44" rx="16" ry="16" stroke="#000000" stroke-width="1" width="141" x="950" y="758"/>
<rect fill="#ffffff" height="42" rx="16" ry="16" stroke="#ffffff" stroke-width="1" width="139" x="951" y="759"/>
<text font-family="Dialog" font-size="12" x="969" y="771">
integer_key_end</text>
<line fill="#000000" stroke="#000000" stroke-width="1" x1="950" x2="1090" y1="781" y2="781"/>
<text font-family="Dialog" font-size="12" x="952" y="793">
entry /++it</text>
<rect fill="#00ff" height="44" rx="16" ry="16" stroke="#00ff" stroke-width="1" width="141" x="950" y="598"/>
<rect fill="#ffffff" height="44" rx="16" ry="16" stroke="#000000" stroke-width="1" width="141" x="950" y="598"/>
<rect fill="#ffffff" height="42" rx="16" ry="16" stroke="#ffffff" stroke-width="1" width="139" x="951" y="599"/>
<text font-family="Dialog" font-size="12" x="956" y="611">
integer_key_pre_end</text>
<line fill="#000000" stroke="#000000" stroke-width="1" x1="950" x2="1090" y1="621" y2="621"/>
<text font-family="Dialog" font-size="12" x="952" y="633">
entry /++it</text>
<polyline fill="none" points="1038,512 1038,598" stroke="#000000" stroke-width="1"/>
<line fill="#000000" stroke="#000000" stroke-width="1" x1="1031" x2="1038" y1="586" y2="598"/>
<line fill="#000000" stroke="#000000" stroke-width="1" x1="1045" x2="1038" y1="586" y2="598"/>
<text font-family="Dialog" font-size="12" x="1041" y="560">
 [*it == \]</text>
<rect fill="#00ff" height="56" rx="16" ry="16" stroke="#00ff" stroke-width="1" width="208" x="238" y="166"/>
<rect fill="#ffffff" height="56" rx="16" ry="16" stroke="#000000" stroke-width="1" width="208" x="238" y="166"/>
<rect fill="#ffffff" height="54" rx="16" ry="16" stroke="#ffffff" stroke-width="1" width="206" x="239" y="167"/>
<text font-family="Dialog" font-size="12" x="308" y="179">
search-key</text>
<line fill="#000000" stroke="#000000" stroke-width="1" x1="238" x2="445" y1="189" y2="189"/>
<polyline fill="none" points="622,214 445,214" stroke="#000000" stroke-width="1"/>
<line fill="#000000" stroke="#000000" stroke-width="1" x1="457" x2="445" y1="207" y2="214"/>
<line fill="#000000" stroke="#000000" stroke-width="1" x1="457" x2="445" y1="221" y2="214"/>
<text font-family="Dialog" font-size="12" x="503" y="209">
 [it_other]</text>
<polyline fill="none" points="950,758 678,622 678,229" stroke="#000000" stroke-width="1"/>
<line fill="#000000" stroke="#000000" stroke-width="1" x1="685" x2="678" y1="241" y2="229"/>
<line fill="#000000" stroke="#000000" stroke-width="1" x1="671" x2="678" y1="241" y2="229"/>
<text font-family="Dialog" font-size="12" x="838" y="696">
 [*it == /]</text>
<polyline fill="none" points="1090,641 1222,750 1225,870" stroke="#000000" stroke-width="1"/>
<line fill="#000000" stroke="#000000" stroke-width="1" x1="1217" x2="1225" y1="858" y2="870"/>
<line fill="#000000" stroke="#000000" stroke-width="1" x1="1231" x2="1225" y1="857" y2="870"/>
<text font-family="Dialog" font-size="12" x="1133" y="669">
 [*it==eos]</text>
<polyline fill="none" points="942,478 678,478 678,229" stroke="#000000" stroke-width="1"/>
<line fill="#000000" stroke="#000000" stroke-width="1" x1="685" x2="678" y1="241" y2="229"/>
<line fill="#000000" stroke="#000000" stroke-width="1" x1="671" x2="678" y1="241" y2="229"/>
<text font-family="Dialog" font-size="12" x="761" y="467">
 [*it == /]</text>
<polyline fill="none" points="934,342 678,342 678,229" stroke="#000000" stroke-width="1"/>
<line fill="#000000" stroke="#000000" stroke-width="1" x1="685" x2="678" y1="241" y2="229"/>
<line fill="#000000" stroke="#000000" stroke-width="1" x1="671" x2="678" y1="241" y2="229"/>
<text font-family="Dialog" font-size="12" x="761" y="337">
 [*it == /]</text>
<polyline fill="none" points="478,366 445,221" stroke="#000000" stroke-width="1"/>
<line fill="#000000" stroke="#000000" stroke-width="1" x1="454" x2="445" y1="231" y2="221"/>
<line fill="#000000" stroke="#000000" stroke-width="1" x1="440" x2="445" y1="234" y2="221"/>
<text font-family="Dialog" font-size="12" x="465" y="295">
 / ++it</text>
</svg>
